<svg xmlns="http://www.w3.org/2000/svg" version="1.1" xmlns:xlink="http://www.w3.org/1999/xlink" xmlns:svgjs="http://svgjs.dev/svgjs" width="1500" height="1500" viewBox="0 0 1500 1500"><rect width="1500" height="1500" fill="#000000"></rect><g transform="matrix(0.6666666666666666,0,0,0.6666666666666666,249.3939393939395,642.7296535948327)"><svg viewBox="0 0 396 85" data-background-color="#ffffff" preserveAspectRatio="xMidYMid meet" height="321" width="1500" xmlns="http://www.w3.org/2000/svg" xmlns:xlink="http://www.w3.org/1999/xlink"><g id="tight-bounds" transform="matrix(1,0,0,1,0.23999999999995225,0.10738058149166818)"><svg viewBox="0 0 395.52 84.78523883701666" height="84.78523883701666" width="395.52"><g><svg viewBox="0 0 642.1222483940202 137.64787670067037" height="84.78523883701666" width="395.52"><g><rect width="8.982074944627502" height="119.5205875837948" x="419.03328519535995" y="9.06364455843778" fill="#ffffff" opacity="1" stroke-width="0" stroke="transparent" fill-opacity="1" class="rect-yte-0" data-fill-palette-color="primary" rx="1%" id="yte-0" data-palette-color="#2d4f8f"></rect></g><g transform="matrix(1,0,0,1,0,19.023693523754012)"><svg viewBox="0 0 395.52 99.60048965316234" height="99.60048965316234" width="395.52"><g id="textblocktransform"><svg viewBox="0 0 395.52 99.60048965316234" height="99.60048965316234" width="395.52" id="textblock"><g><svg viewBox="0 0 395.52 99.60048965316234" height="99.60048965316234" width="395.52"><g transform="matrix(1,0,0,1,0,0)"><svg width="395.52" viewBox="1.15 -42.4 171.54 43.199999999999996" height="99.60048965316234" data-palette-color="#2d4f8f"><path d="M1.15-40L6.45-40 9.6-13.2 10.25-4 10.8-4 13.85-30 21.6-30 24.45-4 25-4 25.75-13.2 28.95-40 33.85-40 28.95 0 20.8 0 17.85-26.65 17.3-26.65 14.15 0 6.05 0 1.15-40ZM43.95-13.2L43.95-18.05 62-18.05 60.15-15.45Q60.15-20.5 58.35-23.15 56.55-25.8 53.1-25.8L53.1-25.8Q49.35-25.8 47.25-23.03 45.15-20.25 45.15-15.25L45.15-15.25Q45.15-9.9 47.25-7.05 49.35-4.2 53.25-4.2L53.25-4.2Q55.8-4.2 57.7-5.48 59.6-6.75 60.9-9.2L60.9-9.2 66.05-9.2Q65.3-6.1 63.52-3.85 61.75-1.6 59.12-0.4 56.5 0.8 53.25 0.8L53.25 0.8Q49.05 0.8 46.02-1.1 43-3 41.4-6.6 39.8-10.2 39.8-15.25L39.8-15.25Q39.8-20.05 41.42-23.53 43.05-27 46.05-28.9 49.05-30.8 53.1-30.8L53.1-30.8Q56.95-30.8 59.65-29 62.35-27.2 63.8-23.78 65.25-20.35 65.25-15.5L65.25-15.5Q65.25-14.95 65.22-14.35 65.2-13.75 65.15-13.2L65.15-13.2 43.95-13.2ZM89.59 0.8L89.59 0.8Q87.2 0.8 85.2-0.18 83.2-1.15 82.2-2.75L82.2-2.75 80.7-2.75 80.7 0 75.2 0 75.2-42.4 80.7-42.4 80.7-27.25 82.2-27.25Q83.2-28.9 85.2-29.85 87.2-30.8 89.59-30.8L89.59-30.8Q93.34-30.8 96.09-28.88 98.84-26.95 100.34-23.4 101.84-19.85 101.84-15L101.84-15Q101.84-10.15 100.34-6.6 98.84-3.05 96.09-1.13 93.34 0.8 89.59 0.8ZM88.45-4.35L88.45-4.35Q92.2-4.35 94.27-7.15 96.34-9.95 96.34-15L96.34-15Q96.34-20.05 94.27-22.85 92.2-25.65 88.45-25.65L88.45-25.65Q84.65-25.65 82.57-22.85 80.5-20.05 80.5-15L80.5-15Q80.5-9.95 82.57-7.15 84.65-4.35 88.45-4.35ZM120.84 0L109.64 0 109.64-40 120.84-40Q128.94-40 133.02-34.98 137.09-29.95 137.09-20L137.09-20Q137.09-10.05 133.02-5.03 128.94 0 120.84 0L120.84 0ZM115.34-34.65L115.34-5.35 120.84-5.35Q126.14-5.35 128.77-8.97 131.39-12.6 131.39-20L131.39-20Q131.39-27.45 128.77-31.05 126.14-34.65 120.84-34.65L120.84-34.65 115.34-34.65ZM152.19 0L146.49 0 146.49-40 160.19-40Q163.99-40 166.79-38.55 169.59-37.1 171.14-34.48 172.69-31.85 172.69-28.25L172.69-28.25Q172.69-24.65 171.14-22.03 169.59-19.4 166.79-17.98 163.99-16.55 160.19-16.55L160.19-16.55 152.19-16.55 152.19 0ZM152.19-34.65L152.19-21.65 160.39-21.65Q163.44-21.65 165.22-23.4 166.99-25.15 166.99-28.15L166.99-28.15Q166.99-31.15 165.22-32.9 163.44-34.65 160.39-34.65L160.39-34.65 152.19-34.65Z" opacity="1" transform="matrix(1,0,0,1,0,0)" fill="#ffffff" class="wordmark-text-0" data-fill-palette-color="primary" id="text-0"></path></svg></g></svg></g></svg></g></svg></g><g transform="matrix(1,0,0,1,451.52864533534745,0)"><svg viewBox="0 0 190.5936030586728 137.64787670067037" height="137.64787670067037" width="190.5936030586728"><g><svg xmlns="http://www.w3.org/2000/svg" xmlns:xlink="http://www.w3.org/1999/xlink" version="1.1" x="0" y="0" viewBox="5 17.5 90.002 65" enable-background="new 0 0 100 100" xml:space="preserve" height="137.64787670067037" width="190.5936030586728" class="icon-icon-0" data-fill-palette-color="accent" id="icon-0"><path d="M87.5 27.5A7.49 7.49 0 0 0 81.397 30.656L59.976 24.536C59.735 20.617 56.479 17.5 52.5 17.5 48.364 17.5 45 20.864 45 25A7.5 7.5 0 0 0 48.361 31.248L39.289 67.536C36.343 67.815 33.894 69.806 32.938 72.5H19.563C18.53 69.592 15.759 67.5 12.5 67.5 8.364 67.5 5 70.864 5 75S8.364 82.5 12.5 82.5C15.758 82.5 18.53 80.408 19.563 77.5H32.938C33.971 80.408 36.742 82.5 40.001 82.5 44.137 82.5 47.501 79.136 47.501 75A7.5 7.5 0 0 0 44.14 68.751L53.212 32.463A7.5 7.5 0 0 0 58.604 29.343L80.025 35.463C80.266 39.382 83.522 42.499 87.502 42.499 91.638 42.499 95.002 39.135 95.002 34.999S91.636 27.5 87.5 27.5M87.5 37.5C86.121 37.5 85 36.378 85 35S86.121 32.5 87.5 32.5 90 33.622 90 35 88.879 37.5 87.5 37.5M52.5 27.5C51.121 27.5 50 26.378 50 25S51.121 22.5 52.5 22.5 55 23.622 55 25 53.879 27.5 52.5 27.5M40 77.5C38.621 77.5 37.5 76.379 37.5 75S38.621 72.5 40 72.5 42.5 73.621 42.5 75 41.379 77.5 40 77.5M15 75C15 76.379 13.879 77.5 12.5 77.5S10 76.379 10 75 11.121 72.5 12.5 72.5 15 73.621 15 75" fill="#ffffff" data-fill-palette-color="accent"></path><circle cx="25" cy="67.5" r="2.5" fill="#ffffff" data-fill-palette-color="accent"></circle><circle cx="35" cy="62.5" r="2.5" fill="#ffffff" data-fill-palette-color="accent"></circle><circle cx="55" cy="52.5" r="2.5" fill="#ffffff" data-fill-palette-color="accent"></circle><circle cx="65" cy="47.5" r="2.5" fill="#ffffff" data-fill-palette-color="accent"></circle><circle cx="75" cy="42.5" r="2.5" fill="#ffffff" data-fill-palette-color="accent"></circle></svg></g></svg></g></svg></g><defs></defs></svg><rect width="395.52" height="84.78523883701666" fill="none" stroke="none" visibility="hidden"></rect></g></svg></g></svg>